<svg width="221" height="78" viewBox="0 0 221 78" fill="none" xmlns="http://www.w3.org/2000/svg">
<path d="M0 0H216C218.761 0 221 2.23858 221 5V73C221 75.7614 218.761 78 216 78H0V0Z" fill="#03045E"/>
<path d="M55.652 37.08V40.842C56.9947 41.5767 58.0587 42.6407 58.844 44.034C59.6547 45.402 60.06 47.0867 60.06 49.088C60.06 50.988 59.6673 52.6727 58.882 54.142C58.0967 55.6113 56.944 56.764 55.424 57.6C53.904 58.436 52.08 58.854 49.952 58.854L48.622 58.778V52.85L49.648 52.926C50.6613 52.926 51.4847 52.5967 52.118 51.938C52.7513 51.2793 53.068 50.3673 53.068 49.202C53.068 48.1887 52.8147 47.378 52.308 46.77C51.8013 46.162 51.092 45.858 50.18 45.858C49.1667 45.858 48.4193 46.2127 47.938 46.922C47.482 47.6313 47.254 48.5053 47.254 49.544V50.57H41.592V49.544C41.592 48.48 41.364 47.606 40.908 46.922C40.452 46.2127 39.7173 45.858 38.704 45.858C37.7667 45.858 37.0447 46.162 36.538 46.77C36.0313 47.3527 35.778 48.1633 35.778 49.202C35.778 50.3673 36.0947 51.2793 36.728 51.938C37.3613 52.5967 38.1847 52.926 39.198 52.926L40.224 52.85V58.778L38.894 58.854C36.766 58.854 34.942 58.436 33.422 57.6C31.902 56.764 30.7493 55.6113 29.964 54.142C29.1787 52.6727 28.786 50.988 28.786 49.088C28.786 47.036 29.1913 45.3133 30.002 43.92C30.838 42.5267 31.9273 41.5007 33.27 40.842C34.638 40.158 36.1073 39.816 37.678 39.816C40.8193 39.816 43.0487 41.1333 44.366 43.768H44.48C45.392 41.8427 46.874 40.614 48.926 40.082V37.08H26.468V31.38H62.378V37.08H55.652ZM74.8037 31.38V37.08H71.4977V59.5H64.6577V37.08H61.3137V31.38H64.9237C64.0117 29.9867 63.2644 28.986 62.6817 28.378C62.1244 27.7447 61.529 27.3267 60.8957 27.124C60.2624 26.896 59.3884 26.782 58.2737 26.782H56.1837V21.272H58.1977C60.3764 21.2973 62.099 21.538 63.3657 21.994C64.6577 22.45 65.899 23.3747 67.0897 24.768C68.2804 26.1613 69.699 28.3653 71.3457 31.38H74.8037ZM96.0885 37.08V41.982C96.6205 41.2473 97.3171 40.6773 98.1785 40.272C99.0651 39.8667 100.078 39.664 101.218 39.664C102.814 39.664 104.182 40.0567 105.322 40.842C106.462 41.602 107.324 42.6533 107.906 43.996C108.514 45.3133 108.818 46.7827 108.818 48.404C108.818 50.1773 108.476 51.7227 107.792 53.04C107.134 54.332 106.209 55.32 105.018 56.004C103.853 56.688 102.51 57.03 100.99 57.03C100.078 57.03 99.2045 56.9287 98.3685 56.726V51.368C98.5711 51.444 98.8245 51.482 99.1285 51.482C99.9391 51.482 100.598 51.216 101.104 50.684C101.611 50.152 101.864 49.4427 101.864 48.556C101.864 47.6693 101.598 46.9347 101.066 46.352C100.56 45.7693 99.8631 45.478 98.9765 45.478C98.0391 45.478 97.3171 45.7947 96.8105 46.428C96.3291 47.0613 96.0885 47.8973 96.0885 48.936V59.5H89.4765V55.016C88.2605 56.6373 86.3985 57.448 83.8905 57.448C82.2945 57.448 80.9011 57.068 79.7105 56.308C78.5451 55.548 77.6458 54.4967 77.0125 53.154C76.4045 51.8113 76.1005 50.2787 76.1005 48.556C76.1005 45.8707 76.8098 43.7173 78.2285 42.096C79.6725 40.4747 81.6485 39.664 84.1565 39.664C85.3471 39.664 86.3858 39.8667 87.2725 40.272C88.1845 40.652 88.9191 41.2093 89.4765 41.944V37.08H73.7825V31.38H111.136V37.08H96.0885ZM86.2845 51.71C87.2471 51.71 88.0198 51.406 88.6025 50.798C89.1851 50.1647 89.4765 49.4173 89.4765 48.556C89.4765 47.6947 89.1851 46.9727 88.6025 46.39C88.0451 45.782 87.2725 45.478 86.2845 45.478C85.3471 45.478 84.5745 45.7693 83.9665 46.352C83.3838 46.9093 83.0925 47.6567 83.0925 48.594C83.0925 49.5313 83.3838 50.2913 83.9665 50.874C84.5491 51.4313 85.3218 51.71 86.2845 51.71ZM142.717 37.08H139.373V59.5H132.533V48.67H119.537V51.862C119.537 52.4953 119.689 53.0147 119.993 53.42C120.297 53.8253 120.753 54.028 121.361 54.028C121.944 54.028 122.387 53.838 122.691 53.458C122.995 53.078 123.147 52.584 123.147 51.976V51.52H129.721C129.747 51.7733 129.759 52.0647 129.759 52.394C129.759 54.674 129.025 56.4853 127.555 57.828C126.111 59.1707 124.097 59.842 121.513 59.842C119.639 59.842 118.043 59.4747 116.725 58.74C115.408 58.0053 114.407 57.0173 113.723 55.776C113.065 54.5093 112.735 53.0907 112.735 51.52V43.806H115.357C117.232 43.806 118.537 43.4133 119.271 42.628C120.031 41.8427 120.411 40.7407 120.411 39.322V37.08H110.075V31.38H142.717V37.08ZM132.533 37.08H127.289V39.322C127.289 40.7407 127.074 41.9947 126.643 43.084H132.533V37.08ZM185.774 37.08H182.43V59.5H175.59V54.256C173.918 55.928 171.574 56.764 168.56 56.764C165.748 56.764 163.455 56.0547 161.682 54.636C159.934 53.2173 158.832 51.254 158.376 48.746C158.046 48.062 157.603 47.53 157.046 47.15C156.488 46.77 155.741 46.58 154.804 46.58C153.613 46.58 152.663 46.9093 151.953 47.568C151.27 48.2013 150.928 49.088 150.928 50.228C150.928 51.368 151.257 52.2673 151.916 52.926C152.6 53.5847 153.613 53.914 154.956 53.914H155.602V59.272H153.854C150.966 59.272 148.597 58.512 146.748 56.992C144.898 55.472 143.974 53.1413 143.974 50C143.974 47.9227 144.442 46.2 145.38 44.832C146.317 43.4387 147.571 42.4127 149.142 41.754C150.738 41.07 152.511 40.728 154.462 40.728C157.502 40.728 159.896 41.5007 161.644 43.046C162.48 42.666 163.062 42.096 163.392 41.336C163.746 40.576 163.924 39.6387 163.924 38.524V37.08H141.655V31.38H185.774V37.08ZM175.59 37.08H170.688V39.778C170.688 41.7033 170.194 43.35 169.206 44.718C168.218 46.086 166.812 46.9473 164.988 47.302C165.089 48.3913 165.583 49.2907 166.47 50C167.356 50.7093 168.547 51.064 170.042 51.064C171.79 51.064 173.145 50.532 174.108 49.468C175.096 48.3787 175.59 46.9853 175.59 45.288V37.08Z" fill="white"/>
<path d="M119.8 26.73V27.98C119.8 28.3467 119.883 28.64 120.05 28.86C120.217 29.08 120.463 29.19 120.79 29.19C121.09 29.19 121.327 29.09 121.5 28.89C121.68 28.6833 121.77 28.41 121.77 28.07V27.85H122.78V28.04C122.78 28.6667 122.603 29.1667 122.25 29.54C121.903 29.9067 121.423 30.09 120.81 30.09C120.15 30.09 119.643 29.8933 119.29 29.5C118.943 29.1 118.77 28.5767 118.77 27.93V25.87H119.81C120.897 25.87 121.44 25.35 121.44 24.31V23.48H117.76V22.6H123.58V23.48H122.48V24.31C122.48 25.0833 122.293 25.68 121.92 26.1C121.547 26.52 120.967 26.73 120.18 26.73H119.8ZM124.322 30V23.48H123.102V22.6H126.592V23.48H125.372V30H124.322ZM133.78 25.41C133.22 25.41 132.763 25.5567 132.41 25.85C132.056 26.1367 131.88 26.5567 131.88 27.11C131.88 27.5833 132.036 27.9733 132.35 28.28C132.663 28.58 133.066 28.73 133.56 28.73C134.066 28.73 134.476 28.5733 134.79 28.26C135.103 27.94 135.26 27.53 135.26 27.03H136.26C136.26 27.6433 136.103 28.17 135.79 28.61C135.483 29.0433 135.06 29.3433 134.52 29.51L135.86 31H134.77L133.58 29.64H133.52L132.33 31H131.25L132.59 29.5C132.143 29.36 131.77 29.1333 131.47 28.82C131.176 28.5067 130.983 28.13 130.89 27.69C130.49 28.0367 130.003 28.21 129.43 28.21C128.696 28.21 128.133 27.9767 127.74 27.51C127.346 27.0433 127.15 26.4167 127.15 25.63V23.48H126.11V22.6H136.91V23.48H134.9V25.41H133.78ZM131.15 25.79C131.376 25.3833 131.713 25.07 132.16 24.85C132.606 24.63 133.126 24.52 133.72 24.52H133.87V23.48H128.17L131.15 25.79ZM129.61 27.32C129.956 27.32 130.24 27.2333 130.46 27.06C130.686 26.8867 130.833 26.6767 130.9 26.43L128.16 24.27V25.66C128.16 26.1867 128.28 26.5967 128.52 26.89C128.76 27.1767 129.123 27.32 129.61 27.32ZM139.912 22.6V23.48H138.692V30H137.642V23.48H136.422V22.6H137.672V22.19C137.672 21.8033 137.599 21.48 137.452 21.22C137.305 20.9533 137.045 20.82 136.672 20.82C136.299 20.82 136.035 20.9533 135.882 21.22C135.729 21.48 135.652 21.8033 135.652 22.19V22.84H134.632V22.24C134.632 21.54 134.795 20.9833 135.122 20.57C135.449 20.15 135.965 19.94 136.672 19.94C137.392 19.94 137.909 20.1467 138.222 20.56C138.535 20.9733 138.692 21.5333 138.692 22.24V22.6H139.912ZM147.34 23.48H146.12V30H145.07V28C144.87 28.2933 144.593 28.53 144.24 28.71C143.887 28.8833 143.467 28.97 142.98 28.97C142.133 28.97 141.477 28.7167 141.01 28.21C140.55 27.7033 140.32 27.0167 140.32 26.15C140.32 25.9767 140.33 25.8067 140.35 25.64H140.48C141.053 25.64 141.48 25.52 141.76 25.28C142.04 25.0333 142.18 24.64 142.18 24.1V23.48H139.43V22.6H147.34V23.48ZM145.07 23.48H143.22V24.28C143.22 25.4933 142.597 26.1367 141.35 26.21V26.25C141.35 26.81 141.513 27.2567 141.84 27.59C142.167 27.9233 142.62 28.09 143.2 28.09C143.553 28.09 143.873 28.0133 144.16 27.86C144.447 27.7067 144.67 27.4933 144.83 27.22C144.99 26.9467 145.07 26.6367 145.07 26.29V23.48ZM153.949 19.94C154.563 19.94 155.113 20.0467 155.599 20.26C156.093 20.4667 156.483 20.7767 156.769 21.19C157.056 21.6033 157.199 22.0967 157.199 22.67V22.84H156.169V22.69C156.169 22.2567 156.059 21.9 155.839 21.62C155.626 21.3333 155.349 21.1267 155.009 21C154.669 20.8667 154.316 20.8 153.949 20.8C153.343 20.8 152.823 20.94 152.389 21.22C151.963 21.5 151.739 21.96 151.719 22.6H152.949V23.48H151.729V30H150.679V23.48H149.459V22.6H150.679C150.693 22.0133 150.843 21.52 151.129 21.12C151.423 20.72 151.813 20.4233 152.299 20.23C152.786 20.0367 153.336 19.94 153.949 19.94ZM155.627 25.27C155.347 25.27 155.12 25.3267 154.947 25.44C154.774 25.5533 154.687 25.7333 154.687 25.98C154.687 26.1533 154.737 26.3 154.837 26.42C154.937 26.54 155.074 26.63 155.247 26.69C155.434 26.6567 155.614 26.64 155.787 26.64C156.454 26.64 156.974 26.8033 157.347 27.13C157.727 27.45 157.954 27.8567 158.027 28.35H157.027C156.967 28.1167 156.827 27.9133 156.607 27.74C156.394 27.5667 156.114 27.48 155.767 27.48C155.36 27.48 155.037 27.61 154.797 27.87C154.557 28.1233 154.437 28.4467 154.437 28.84C154.437 29.24 154.554 29.5667 154.787 29.82C155.027 30.0667 155.354 30.19 155.767 30.19C156.1 30.19 156.377 30.1067 156.597 29.94C156.817 29.7733 156.96 29.5733 157.027 29.34H158.027C157.98 29.66 157.86 29.95 157.667 30.21C157.474 30.47 157.214 30.6767 156.887 30.83C156.567 30.9833 156.194 31.06 155.767 31.06C155.28 31.06 154.857 30.9633 154.497 30.77C154.144 30.5767 153.874 30.3133 153.687 29.98C153.5 29.64 153.407 29.2533 153.407 28.82C153.407 28.4133 153.494 28.0533 153.667 27.74C153.847 27.42 154.1 27.1667 154.427 26.98C154.187 26.86 153.997 26.7 153.857 26.5C153.717 26.3 153.647 26.06 153.647 25.78C153.647 25.3733 153.794 25.06 154.087 24.84C154.38 24.62 154.774 24.51 155.267 24.51H156.427V23.48H152.467V22.6H158.797V23.48H157.427V25.27H155.627ZM159.119 21.05C159.119 21.2367 159.056 21.3933 158.929 21.52C158.803 21.6467 158.646 21.71 158.459 21.71C158.273 21.71 158.113 21.6467 157.979 21.52C157.853 21.3933 157.789 21.2367 157.789 21.05C157.789 20.8633 157.853 20.7067 157.979 20.58C158.113 20.4533 158.273 20.39 158.459 20.39C158.646 20.39 158.803 20.4533 158.929 20.58C159.056 20.7067 159.119 20.8633 159.119 21.05ZM161.976 25.39C161.483 25.39 161.076 25.52 160.756 25.78C160.443 26.04 160.286 26.4033 160.286 26.87C160.286 27.2967 160.413 27.6367 160.666 27.89C160.92 28.1433 161.26 28.27 161.686 28.27C162.026 28.27 162.323 28.1633 162.576 27.95C162.83 27.7367 162.956 27.4333 162.956 27.04H163.926V30.21H162.896V28.42C162.75 28.6333 162.543 28.8033 162.276 28.93C162.016 29.05 161.723 29.11 161.396 29.11C160.983 29.11 160.61 29.0233 160.276 28.85C159.95 28.67 159.69 28.41 159.496 28.07C159.31 27.73 159.216 27.32 159.216 26.84C159.216 26.3333 159.333 25.9033 159.566 25.55C159.8 25.1967 160.116 24.9333 160.516 24.76C160.916 24.58 161.37 24.49 161.876 24.49H162.496V23.48H158.326V22.6H164.906L164.896 23.48H163.546V25.39H161.976ZM167.92 22.6V23.48H166.7V30H165.65V23.48H164.43V22.6H165.68V22.19C165.68 21.8033 165.607 21.48 165.46 21.22C165.313 20.9533 165.053 20.82 164.68 20.82C164.307 20.82 164.043 20.9533 163.89 21.22C163.737 21.48 163.66 21.8033 163.66 22.19V22.84H162.64V22.24C162.64 21.54 162.803 20.9833 163.13 20.57C163.457 20.15 163.973 19.94 164.68 19.94C165.4 19.94 165.917 20.1467 166.23 20.56C166.543 20.9733 166.7 21.5333 166.7 22.24V22.6H167.92ZM173.685 25.39C173.192 25.39 172.785 25.52 172.465 25.78C172.152 26.04 171.995 26.4033 171.995 26.87C171.995 27.2967 172.122 27.6367 172.375 27.89C172.629 28.1433 172.969 28.27 173.395 28.27C173.735 28.27 174.032 28.1633 174.285 27.95C174.539 27.7367 174.665 27.4333 174.665 27.04H175.635V30.21H174.605V28.42C174.459 28.6333 174.252 28.8033 173.985 28.93C173.725 29.05 173.432 29.11 173.105 29.11C172.692 29.11 172.319 29.0233 171.985 28.85C171.659 28.67 171.399 28.41 171.205 28.07C171.019 27.73 170.925 27.32 170.925 26.84C170.925 26.3333 171.042 25.9033 171.275 25.55C171.509 25.1967 171.825 24.9333 172.225 24.76C172.625 24.58 173.079 24.49 173.585 24.49H174.205V23.48H170.035V22.6H176.615L176.605 23.48H175.255V25.39H173.685ZM174.262 22.64C173.936 22.1267 173.669 21.76 173.462 21.54C173.256 21.3133 173.056 21.1667 172.862 21.1C172.662 21.0267 172.389 20.99 172.042 20.99H171.592V20.13H172.022C172.536 20.1367 172.942 20.1933 173.242 20.3C173.536 20.4 173.836 20.6233 174.142 20.97C174.442 21.3167 174.812 21.8733 175.252 22.64H174.262ZM181.669 19.9C183.116 19.9 184.209 20.1433 184.949 20.63C185.696 21.11 186.069 21.8033 186.069 22.71V22.88H185.039V22.74C185.039 21.42 183.912 20.76 181.659 20.76C180.579 20.76 179.769 20.9 179.229 21.18C178.696 21.46 178.419 21.9333 178.399 22.6H179.629V23.48H178.409V30H177.359V23.48H176.139V22.6H177.359C177.386 21.6867 177.756 21.01 178.469 20.57C179.182 20.1233 180.249 19.9 181.669 19.9ZM187.617 23.48H186.397V30H185.347V25.86H183.607C183.907 26.2067 184.057 26.6233 184.057 27.11C184.057 27.49 183.97 27.8233 183.797 28.11C183.623 28.39 183.383 28.6033 183.077 28.75C182.777 28.8967 182.44 28.97 182.067 28.97C181.68 28.97 181.327 28.89 181.007 28.73C180.687 28.5633 180.433 28.33 180.247 28.03C180.067 27.73 179.977 27.38 179.977 26.98C179.977 26.56 180.07 26.2 180.257 25.9C180.45 25.6 180.71 25.3733 181.037 25.22C181.37 25.06 181.743 24.98 182.157 24.98H185.347V23.48H179.147V22.6H187.617V23.48ZM182.087 28.08C182.42 28.08 182.69 27.9767 182.897 27.77C183.11 27.5633 183.217 27.2967 183.217 26.97C183.217 26.65 183.11 26.3867 182.897 26.18C182.683 25.9667 182.413 25.86 182.087 25.86C181.747 25.86 181.467 25.9667 181.247 26.18C181.033 26.3867 180.927 26.6533 180.927 26.98C180.927 27.3067 181.033 27.5733 181.247 27.78C181.46 27.98 181.74 28.08 182.087 28.08ZM192.875 23.48V25.43C193.022 25.1433 193.232 24.9167 193.505 24.75C193.785 24.5767 194.122 24.49 194.515 24.49C194.922 24.49 195.282 24.59 195.595 24.79C195.908 24.9833 196.152 25.2533 196.325 25.6C196.498 25.94 196.585 26.33 196.585 26.77C196.585 27.2433 196.495 27.6533 196.315 28C196.135 28.34 195.888 28.6033 195.575 28.79C195.262 28.97 194.905 29.06 194.505 29.06C194.265 29.06 194.052 29.0367 193.865 28.99V28.16C193.965 28.1867 194.088 28.2 194.235 28.2C194.608 28.2 194.915 28.0767 195.155 27.83C195.402 27.5767 195.525 27.23 195.525 26.79C195.525 26.3767 195.398 26.04 195.145 25.78C194.898 25.52 194.585 25.39 194.205 25.39C193.765 25.39 193.432 25.5367 193.205 25.83C192.985 26.1233 192.875 26.4733 192.875 26.88V30H191.865V28.17C191.712 28.4567 191.488 28.6867 191.195 28.86C190.902 29.0333 190.548 29.12 190.135 29.12C189.722 29.12 189.355 29.0233 189.035 28.83C188.715 28.6367 188.465 28.3667 188.285 28.02C188.112 27.6667 188.025 27.2567 188.025 26.79C188.025 26.33 188.115 25.9267 188.295 25.58C188.475 25.2333 188.728 24.9667 189.055 24.78C189.382 24.5867 189.755 24.49 190.175 24.49C190.575 24.49 190.918 24.5733 191.205 24.74C191.492 24.9067 191.712 25.13 191.865 25.41V23.48H187.135V22.6H197.465V23.48H192.875ZM190.475 28.24C190.775 28.24 191.028 28.17 191.235 28.03C191.448 27.89 191.605 27.71 191.705 27.49C191.812 27.27 191.865 27.0433 191.865 26.81C191.865 26.43 191.745 26.1 191.505 25.82C191.265 25.5333 190.922 25.39 190.475 25.39C190.082 25.39 189.752 25.52 189.485 25.78C189.218 26.0333 189.085 26.3733 189.085 26.8C189.085 27.24 189.215 27.59 189.475 27.85C189.735 28.11 190.068 28.24 190.475 28.24Z" fill="white"/>
</svg>
